<?xml version="1.0" encoding="UTF-8"?>
<!DOCTYPE svg PUBLIC "-//W3C//DTD SVG 1.1//EN" "http://www.w3.org/Graphics/SVG/1.1/DTD/svg11.dtd">
<svg xmlns="http://www.w3.org/2000/svg" version="1.1" width="256px" height="256px" style="shape-rendering:geometricPrecision; text-rendering:geometricPrecision; image-rendering:optimizeQuality; fill-rule:evenodd; clip-rule:evenodd" xmlns:xlink="http://www.w3.org/1999/xlink">
<g><path style="opacity:1" fill="#f73700" d="M 78.5,-0.5 C 105.167,-0.5 131.833,-0.5 158.5,-0.5C 158.5,4.5 158.5,9.5 158.5,14.5C 174.5,14.5 190.5,14.5 206.5,14.5C 206.5,20.1667 206.5,25.8333 206.5,31.5C 195.833,31.5 185.167,31.5 174.5,31.5C 169.167,31.5 163.833,31.5 158.5,31.5C 153.167,31.5 147.833,31.5 142.5,31.5C 131.833,31.5 121.167,31.5 110.5,31.5C 94.5,31.5 78.5,31.5 62.5,31.5C 62.5,25.8333 62.5,20.1667 62.5,14.5C 67.8333,14.5 73.1667,14.5 78.5,14.5C 78.5,9.5 78.5,4.5 78.5,-0.5 Z"/></g>
<g><path style="opacity:1" fill="#ad7e00" d="M 62.5,31.5 C 78.5,31.5 94.5,31.5 110.5,31.5C 110.5,36.8333 110.5,42.1667 110.5,47.5C 105.167,47.5 99.8333,47.5 94.5,47.5C 94.5,52.5 94.5,57.5 94.5,62.5C 99.8333,62.5 105.167,62.5 110.5,62.5C 110.5,67.8333 110.5,73.1667 110.5,78.5C 99.8333,78.5 89.1667,78.5 78.5,78.5C 78.5,68.1667 78.5,57.8333 78.5,47.5C 73.1667,47.5 67.8333,47.5 62.5,47.5C 62.5,42.1667 62.5,36.8333 62.5,31.5 Z"/></g>
<g><path style="opacity:1" fill="#fea245" d="M 110.5,31.5 C 121.167,31.5 131.833,31.5 142.5,31.5C 142.5,41.8333 142.5,52.1667 142.5,62.5C 147.833,62.5 153.167,62.5 158.5,62.5C 158.5,67.8333 158.5,73.1667 158.5,78.5C 153.167,78.5 147.833,78.5 142.5,78.5C 142.5,84.1667 142.5,89.8333 142.5,95.5C 158.5,95.5 174.5,95.5 190.5,95.5C 190.5,100.833 190.5,106.167 190.5,111.5C 179.833,111.5 169.167,111.5 158.5,111.5C 142.5,111.5 126.5,111.5 110.5,111.5C 105.167,111.5 99.8333,111.5 94.5,111.5C 89.1667,111.5 83.8333,111.5 78.5,111.5C 78.5,106.167 78.5,100.833 78.5,95.5C 78.5,89.8333 78.5,84.1667 78.5,78.5C 89.1667,78.5 99.8333,78.5 110.5,78.5C 110.5,73.1667 110.5,67.8333 110.5,62.5C 105.167,62.5 99.8333,62.5 94.5,62.5C 94.5,57.5 94.5,52.5 94.5,47.5C 99.8333,47.5 105.167,47.5 110.5,47.5C 110.5,42.1667 110.5,36.8333 110.5,31.5 Z"/></g>
<g><path style="opacity:1" fill="#ad7e00" d="M 142.5,31.5 C 147.833,31.5 153.167,31.5 158.5,31.5C 158.5,41.8333 158.5,52.1667 158.5,62.5C 153.167,62.5 147.833,62.5 142.5,62.5C 142.5,52.1667 142.5,41.8333 142.5,31.5 Z"/></g>
<g><path style="opacity:1" fill="#fea245" d="M 158.5,31.5 C 163.833,31.5 169.167,31.5 174.5,31.5C 174.5,36.8333 174.5,42.1667 174.5,47.5C 185.167,47.5 195.833,47.5 206.5,47.5C 206.5,52.5 206.5,57.5 206.5,62.5C 212.167,62.5 217.833,62.5 223.5,62.5C 223.5,67.8333 223.5,73.1667 223.5,78.5C 217.833,78.5 212.167,78.5 206.5,78.5C 195.833,78.5 185.167,78.5 174.5,78.5C 174.5,73.1667 174.5,67.8333 174.5,62.5C 169.167,62.5 163.833,62.5 158.5,62.5C 158.5,52.1667 158.5,41.8333 158.5,31.5 Z"/></g>
<g><path style="opacity:1" fill="#ad7e00" d="M 62.5,47.5 C 62.5,57.8333 62.5,68.1667 62.5,78.5C 67.8333,78.5 73.1667,78.5 78.5,78.5C 78.5,84.1667 78.5,89.8333 78.5,95.5C 67.8333,95.5 57.1667,95.5 46.5,95.5C 46.5,79.5 46.5,63.5 46.5,47.5C 51.8333,47.5 57.1667,47.5 62.5,47.5 Z"/></g>
<g><path style="opacity:1" fill="#fea245" d="M 62.5,47.5 C 67.8333,47.5 73.1667,47.5 78.5,47.5C 78.5,57.8333 78.5,68.1667 78.5,78.5C 73.1667,78.5 67.8333,78.5 62.5,78.5C 62.5,68.1667 62.5,57.8333 62.5,47.5 Z"/></g>
<g><path style="opacity:1" fill="#ad7e00" d="M 158.5,62.5 C 163.833,62.5 169.167,62.5 174.5,62.5C 174.5,67.8333 174.5,73.1667 174.5,78.5C 185.167,78.5 195.833,78.5 206.5,78.5C 206.5,84.1667 206.5,89.8333 206.5,95.5C 201.167,95.5 195.833,95.5 190.5,95.5C 174.5,95.5 158.5,95.5 142.5,95.5C 142.5,89.8333 142.5,84.1667 142.5,78.5C 147.833,78.5 153.167,78.5 158.5,78.5C 158.5,73.1667 158.5,67.8333 158.5,62.5 Z"/></g>
<g><path style="opacity:1" fill="#ad7e00" d="M 78.5,111.5 C 83.8333,111.5 89.1667,111.5 94.5,111.5C 94.5,127.5 94.5,143.5 94.5,159.5C 89.1667,159.5 83.8333,159.5 78.5,159.5C 78.5,164.833 78.5,170.167 78.5,175.5C 73.1667,175.5 67.8333,175.5 62.5,175.5C 62.5,170.167 62.5,164.833 62.5,159.5C 52.1667,159.5 41.8333,159.5 31.5,159.5C 31.5,153.833 31.5,148.167 31.5,142.5C 36.5,142.5 41.5,142.5 46.5,142.5C 46.5,137.167 46.5,131.833 46.5,126.5C 51.8333,126.5 57.1667,126.5 62.5,126.5C 62.5,121.5 62.5,116.5 62.5,111.5C 67.8333,111.5 73.1667,111.5 78.5,111.5 Z"/></g>
<g><path style="opacity:1" fill="#f73700" d="M 94.5,111.5 C 99.8333,111.5 105.167,111.5 110.5,111.5C 110.5,121.833 110.5,132.167 110.5,142.5C 121.167,142.5 131.833,142.5 142.5,142.5C 142.5,137.167 142.5,131.833 142.5,126.5C 147.833,126.5 153.167,126.5 158.5,126.5C 158.5,137.5 158.5,148.5 158.5,159.5C 163.833,159.5 169.167,159.5 174.5,159.5C 174.5,164.833 174.5,170.167 174.5,175.5C 174.5,180.5 174.5,185.5 174.5,190.5C 179.833,190.5 185.167,190.5 190.5,190.5C 190.5,195.833 190.5,201.167 190.5,206.5C 190.5,212.167 190.5,217.833 190.5,223.5C 179.833,223.5 169.167,223.5 158.5,223.5C 153.167,223.5 147.833,223.5 142.5,223.5C 142.5,217.833 142.5,212.167 142.5,206.5C 131.833,206.5 121.167,206.5 110.5,206.5C 110.5,212.167 110.5,217.833 110.5,223.5C 105.167,223.5 99.8333,223.5 94.5,223.5C 83.8333,223.5 73.1667,223.5 62.5,223.5C 62.5,217.833 62.5,212.167 62.5,206.5C 62.5,201.167 62.5,195.833 62.5,190.5C 67.8333,190.5 73.1667,190.5 78.5,190.5C 78.5,185.5 78.5,180.5 78.5,175.5C 78.5,170.167 78.5,164.833 78.5,159.5C 83.8333,159.5 89.1667,159.5 94.5,159.5C 94.5,143.5 94.5,127.5 94.5,111.5 Z"/></g>
<g><path style="opacity:1" fill="#ad7e00" d="M 110.5,111.5 C 126.5,111.5 142.5,111.5 158.5,111.5C 158.5,116.5 158.5,121.5 158.5,126.5C 153.167,126.5 147.833,126.5 142.5,126.5C 142.5,131.833 142.5,137.167 142.5,142.5C 131.833,142.5 121.167,142.5 110.5,142.5C 110.5,132.167 110.5,121.833 110.5,111.5 Z"/></g>
<g><path style="opacity:1" fill="#ad7e00" d="M 158.5,126.5 C 174.5,126.5 190.5,126.5 206.5,126.5C 206.5,131.833 206.5,137.167 206.5,142.5C 212.167,142.5 217.833,142.5 223.5,142.5C 223.5,148.167 223.5,153.833 223.5,159.5C 212.5,159.5 201.5,159.5 190.5,159.5C 190.5,164.833 190.5,170.167 190.5,175.5C 185.167,175.5 179.833,175.5 174.5,175.5C 174.5,170.167 174.5,164.833 174.5,159.5C 169.167,159.5 163.833,159.5 158.5,159.5C 158.5,148.5 158.5,137.5 158.5,126.5 Z"/></g>
<g><path style="opacity:1" fill="#fea245" d="M 31.5,159.5 C 41.8333,159.5 52.1667,159.5 62.5,159.5C 62.5,164.833 62.5,170.167 62.5,175.5C 67.8333,175.5 73.1667,175.5 78.5,175.5C 78.5,180.5 78.5,185.5 78.5,190.5C 73.1667,190.5 67.8333,190.5 62.5,190.5C 62.5,195.833 62.5,201.167 62.5,206.5C 52.1667,206.5 41.8333,206.5 31.5,206.5C 31.5,190.833 31.5,175.167 31.5,159.5 Z"/></g>
<g><path style="opacity:1" fill="#fea245" d="M 94.5,159.5 C 99.8333,159.5 105.167,159.5 110.5,159.5C 110.5,164.833 110.5,170.167 110.5,175.5C 105.167,175.5 99.8333,175.5 94.5,175.5C 94.5,170.167 94.5,164.833 94.5,159.5 Z"/></g>
<g><path style="opacity:1" fill="#fea245" d="M 158.5,159.5 C 158.5,164.833 158.5,170.167 158.5,175.5C 153.167,175.5 147.833,175.5 142.5,175.5C 142.5,170.167 142.5,164.833 142.5,159.5C 147.833,159.5 153.167,159.5 158.5,159.5 Z"/></g>
<g><path style="opacity:1" fill="#fea245" d="M 223.5,159.5 C 223.5,175.167 223.5,190.833 223.5,206.5C 212.5,206.5 201.5,206.5 190.5,206.5C 190.5,201.167 190.5,195.833 190.5,190.5C 185.167,190.5 179.833,190.5 174.5,190.5C 174.5,185.5 174.5,180.5 174.5,175.5C 179.833,175.5 185.167,175.5 190.5,175.5C 190.5,170.167 190.5,164.833 190.5,159.5C 201.5,159.5 212.5,159.5 223.5,159.5 Z"/></g>
<g><path style="opacity:1" fill="#ad7e00" d="M 62.5,223.5 C 73.1667,223.5 83.8333,223.5 94.5,223.5C 94.5,234.167 94.5,244.833 94.5,255.5C 73.5,255.5 52.5,255.5 31.5,255.5C 31.5,250.167 31.5,244.833 31.5,239.5C 36.5,239.5 41.5,239.5 46.5,239.5C 46.5,234.167 46.5,228.833 46.5,223.5C 51.8333,223.5 57.1667,223.5 62.5,223.5 Z"/></g>
<g><path style="opacity:1" fill="#ad7e00" d="M 158.5,223.5 C 169.167,223.5 179.833,223.5 190.5,223.5C 195.833,223.5 201.167,223.5 206.5,223.5C 206.5,228.833 206.5,234.167 206.5,239.5C 212.167,239.5 217.833,239.5 223.5,239.5C 223.5,244.833 223.5,250.167 223.5,255.5C 201.833,255.5 180.167,255.5 158.5,255.5C 158.5,244.833 158.5,234.167 158.5,223.5 Z"/></g>
</svg>
